<svg width="20" height="20" viewBox="0 0 20 20" fill="none" xmlns="http://www.w3.org/2000/svg">
<g clip-path="url(#clip0_14_156)">
<path d="M14.5833 20C7.79249 20.1908 -4.22917 8.15583 1.55166 1.615C1.57249 1.595 2.46166 0.82 2.46166 0.82C3.01971 0.30412 3.75348 0.0204491 4.51343 0.0267975C5.27337 0.0331459 6.0023 0.329036 6.55166 0.854167L8.34499 2.78583C8.87324 3.3379 9.16538 4.0742 9.15931 4.83826C9.15324 5.60232 8.84945 6.3339 8.31249 6.8775L7.98916 7.20583C8.9521 9.33824 10.6558 11.049 12.7842 12.0208L13.1267 11.6875C13.6822 11.1584 14.4199 10.8633 15.1871 10.8633C15.9542 10.8633 16.692 11.1584 17.2475 11.6875L19.1117 13.4167C19.6638 13.9561 19.9808 14.6916 19.9936 15.4634C20.0064 16.2353 19.714 16.9809 19.18 17.5383C19.18 17.5383 18.405 18.4267 18.385 18.4475C17.8856 18.945 17.2924 19.3384 16.6398 19.605C15.9872 19.8715 15.2882 20.0057 14.5833 20ZM3.29166 3.41667C-0.757508 8.43167 12.2033 20.6442 16.5875 16.7083C16.5875 16.7083 17.3575 15.8258 17.3783 15.8058C17.4564 15.7277 17.5003 15.6217 17.5003 15.5113C17.5003 15.4008 17.4564 15.2948 17.3783 15.2167L15.5133 13.4883C15.2633 13.28 15.1225 13.2775 14.8908 13.455L13.9442 14.3867C13.7734 14.5546 13.558 14.67 13.3235 14.7191C13.0891 14.7681 12.8454 14.7488 12.6217 14.6633C10.9588 14.0446 9.4485 13.0755 8.19302 11.8219C6.93753 10.5683 5.96624 9.05939 5.34499 7.3975C5.25457 7.17191 5.23187 6.92485 5.27968 6.68656C5.32749 6.44827 5.44372 6.22909 5.61416 6.05583L6.53749 5.1175C6.57954 5.08015 6.61333 5.03443 6.6367 4.98327C6.66007 4.93212 6.67251 4.87665 6.67321 4.82041C6.67392 4.76417 6.66288 4.7084 6.6408 4.65667C6.61872 4.60495 6.58609 4.5584 6.54499 4.52L4.74999 2.58833C4.67057 2.52196 4.56878 2.48844 4.46546 2.49464C4.36213 2.50083 4.26508 2.54627 4.19416 2.62167C4.17416 2.6425 3.29166 3.41667 3.29166 3.41667ZM20 7.91667C19.9976 5.81778 19.1627 3.80556 17.6786 2.32142C16.1944 0.83728 14.1822 0.00242608 12.0833 0C11.7518 0 11.4339 0.131696 11.1994 0.366117C10.965 0.600537 10.8333 0.918479 10.8333 1.25C10.8333 1.58152 10.965 1.89946 11.1994 2.13388C11.4339 2.3683 11.7518 2.5 12.0833 2.5C13.5194 2.50176 14.8961 3.07301 15.9115 4.08845C16.927 5.10389 17.4982 6.48062 17.5 7.91667C17.5 8.24819 17.6317 8.56613 17.8661 8.80055C18.1005 9.03497 18.4185 9.16667 18.75 9.16667C19.0815 9.16667 19.3995 9.03497 19.6339 8.80055C19.8683 8.56613 20 8.24819 20 7.91667ZM15.8333 7.91667C15.8322 6.92244 15.4368 5.96926 14.7338 5.26623C14.0307 4.56321 13.0775 4.16777 12.0833 4.16667C11.7518 4.16667 11.4339 4.29836 11.1994 4.53278C10.965 4.7672 10.8333 5.08515 10.8333 5.41667C10.8333 5.74819 10.965 6.06613 11.1994 6.30055C11.4339 6.53497 11.7518 6.66667 12.0833 6.66667C12.4148 6.66667 12.7328 6.79836 12.9672 7.03278C13.2016 7.2672 13.3333 7.58515 13.3333 7.91667C13.3333 8.24819 13.465 8.56613 13.6994 8.80055C13.9339 9.03497 14.2518 9.16667 14.5833 9.16667C14.9148 9.16667 15.2328 9.03497 15.4672 8.80055C15.7016 8.56613 15.8333 8.24819 15.8333 7.91667Z" fill="black"/>
</g>
<defs>
<clipPath id="clip0_14_156">
<rect width="20" height="20" fill="white"/>
</clipPath>
</defs>
</svg>
