<svg width="80" height="80" viewBox="0 0 80 80" fill="none" xmlns="http://www.w3.org/2000/svg">
<g clip-path="url(#clip0_72_1640)">
<path d="M76.2467 49.59C75.8189 47.9333 75.0622 46.3796 74.0217 45.0213C72.9812 43.663 71.6781 42.5278 70.19 41.6833L67.2467 40.0166L70.1934 38.3333C71.6815 37.4892 72.9843 36.3541 74.0243 34.9957C75.0643 33.6373 75.8201 32.0834 76.2467 30.4266C76.6917 28.7221 76.7886 26.9454 76.5314 25.2026C76.2743 23.4598 75.6684 21.7867 74.7501 20.2833C73.5529 18.2876 71.8878 16.6135 69.8987 15.4055C67.9096 14.1975 65.6562 13.492 63.3334 13.35C60.9291 13.2698 58.5497 13.8583 56.4601 15.05L53.3334 16.8366V13.3333C53.3334 9.79709 51.9286 6.4057 49.4281 3.90522C46.9277 1.40474 43.5363 -2.28882e-05 40.0001 -2.28882e-05C36.4638 -2.28882e-05 33.0725 1.40474 30.572 3.90522C28.0715 6.4057 26.6667 9.79709 26.6667 13.3333V16.8366L23.5367 15.05C21.4682 13.8644 19.1134 13.2705 16.7301 13.3333C14.3932 13.4734 12.1257 14.1802 10.1232 15.3928C8.12074 16.6055 6.44362 18.2874 5.23672 20.2933C4.32387 21.794 3.7224 23.4631 3.46814 25.2012C3.21387 26.9392 3.31202 28.7107 3.75672 30.41C4.18222 32.0698 4.93783 33.6269 5.97845 34.9882C7.01906 36.3496 8.32334 37.4872 9.81339 38.3333L12.7567 40L9.81006 41.6833C8.32196 42.5278 7.01892 43.663 5.97843 45.0213C4.93793 46.3796 4.18125 47.9333 3.75339 49.59C3.30977 51.293 3.21366 53.0679 3.4708 54.8089C3.72794 56.5499 4.33305 58.2212 5.25006 59.7233C6.54053 61.8691 8.37264 63.6377 10.5626 64.8517C12.7525 66.0657 15.2232 66.6824 17.7267 66.64C19.7707 66.543 21.7627 65.9639 23.5401 64.95L26.6667 63.1633V66.6666C26.6667 70.2029 28.0715 73.5942 30.572 76.0947C33.0725 78.5952 36.4638 80 40.0001 80C43.5363 80 46.9277 78.5952 49.4281 76.0947C51.9286 73.5942 53.3334 70.2029 53.3334 66.6666V63.1633L56.4634 64.95C58.5504 66.1469 60.9287 66.7411 63.3334 66.6666C65.6583 66.5192 67.9129 65.8105 69.9041 64.6013C71.8953 63.392 73.5638 61.7183 74.7667 59.7233C75.6809 58.2201 76.2831 56.5481 76.5374 54.8072C76.7916 53.0662 76.6928 51.2919 76.2467 49.59ZM65.9467 54.9533C65.5018 55.7071 64.786 56.2627 63.9454 56.5067C63.1048 56.7508 62.2028 56.6649 61.4234 56.2666L50.8134 50.21C50.0528 49.7755 49.1915 49.5485 48.3157 49.5516C47.4398 49.5547 46.5801 49.7879 45.8227 50.2277C45.0652 50.6675 44.4366 51.2986 43.9997 52.0577C43.5629 52.8168 43.3331 53.6774 43.3334 54.5533V66.6666C43.3334 67.5507 42.9822 68.3985 42.3571 69.0237C41.732 69.6488 40.8841 70 40.0001 70C39.116 70 38.2682 69.6488 37.643 69.0237C37.0179 68.3985 36.6667 67.5507 36.6667 66.6666V54.5533C36.6653 53.6783 36.4342 52.819 35.9966 52.0612C35.5591 51.3034 34.9303 50.6738 34.1731 50.2352C33.416 49.7965 32.557 49.5643 31.682 49.5616C30.8069 49.5589 29.9465 49.786 29.1867 50.22L18.5801 56.2666C17.7962 56.6666 16.8891 56.7513 16.0448 56.5033C15.2005 56.2554 14.4831 55.6936 14.0401 54.9333C13.7877 54.5857 13.6064 54.1917 13.5065 53.7739C13.4066 53.3561 13.39 52.9227 13.4579 52.4986C13.5257 52.0744 13.6765 51.6677 13.9016 51.3019C14.1268 50.9361 14.4219 50.6183 14.7701 50.3666L25.3334 44.3333C26.0997 43.8963 26.7368 43.2643 27.1799 42.5015C27.623 41.7386 27.8564 40.8722 27.8564 39.99C27.8564 39.1078 27.623 38.2413 27.1799 37.4785C26.7368 36.7157 26.0997 36.0837 25.3334 35.6466L14.7734 29.6366C14.1271 29.0822 13.6996 28.3155 13.5677 27.4743C13.4357 26.6331 13.6079 25.7723 14.0534 25.0466C14.4983 24.2929 15.2141 23.7373 16.0547 23.4932C16.8953 23.2491 17.7973 23.335 18.5767 23.7333L29.1867 29.79C29.9473 30.2244 30.8086 30.4514 31.6845 30.4483C32.5603 30.4452 33.42 30.2121 34.1775 29.7723C34.9349 29.3325 35.5635 28.7014 36.0004 27.9422C36.4372 27.1831 36.667 26.3225 36.6667 25.4466V13.3333C36.6667 12.4493 37.0179 11.6014 37.643 10.9763C38.2682 10.3512 39.116 9.99998 40.0001 9.99998C40.8841 9.99998 41.732 10.3512 42.3571 10.9763C42.9822 11.6014 43.3334 12.4493 43.3334 13.3333V25.4466C43.3348 26.3217 43.5659 27.181 44.0035 27.9388C44.4411 28.6965 45.0698 29.3262 45.827 29.7648C46.5841 30.2034 47.4431 30.4357 48.3182 30.4383C49.1932 30.441 50.0536 30.214 50.8134 29.78L61.4201 23.7333C62.2044 23.3332 63.1121 23.2484 63.9569 23.4963C64.8018 23.7443 65.5197 24.3061 65.9634 25.0666C66.4086 25.7882 66.5795 26.6459 66.4449 27.483C66.3103 28.3202 65.8791 29.081 65.2301 29.6266L54.6667 35.6666C53.9004 36.1037 53.2633 36.7357 52.8202 37.4985C52.3771 38.2613 52.1437 39.1278 52.1437 40.01C52.1437 40.8922 52.3771 41.7586 52.8202 42.5215C53.2633 43.2843 53.9004 43.9163 54.6667 44.3533L65.2167 50.3733C65.8845 50.9104 66.3289 51.6764 66.4638 52.5227C66.5987 53.369 66.4144 54.2352 65.9467 54.9533Z" fill="black"/>
</g>
<defs>
<clipPath id="clip0_72_1640">
<rect width="80" height="80" fill="white"/>
</clipPath>
</defs>
</svg>
