<svg width="14" height="20" viewBox="0 0 14 20" fill="none" xmlns="http://www.w3.org/2000/svg">
<path d="M6.54365 11.6823C2.9922 12.0033 0.286497 15.0042 0.333645 18.5698V18.7506C0.333645 19.441 0.893294 20.0006 1.58365 20.0006C2.274 20.0006 2.83365 19.441 2.83365 18.7506V18.5198C2.79607 16.3306 4.41169 14.4636 6.58365 14.1865C8.87634 13.9591 10.9193 15.6334 11.1466 17.9261C11.1601 18.0617 11.1668 18.1978 11.167 18.334V18.7506C11.167 19.441 11.7266 20.0006 12.417 20.0006C13.1073 20.0006 13.667 19.441 13.667 18.7506V18.334C13.6629 14.6479 10.6715 11.6631 6.98544 11.6671C6.83806 11.6673 6.69072 11.6724 6.54365 11.6823Z" fill="black"/>
<path d="M7.00034 10C9.76174 10 12.0003 7.76141 12.0003 5C12.0003 2.23859 9.76174 0 7.00034 0C4.23893 0 2.00034 2.23859 2.00034 5C2.00307 7.76027 4.24006 9.99723 7.00034 10ZM7.00034 2.5C8.38104 2.5 9.50034 3.6193 9.50034 5C9.50034 6.3807 8.38104 7.5 7.00034 7.5C5.61963 7.5 4.50034 6.3807 4.50034 5C4.50034 3.6193 5.61963 2.5 7.00034 2.5Z" fill="black"/>
</svg>
