<svg width="32" height="32" viewBox="0 0 32 32" fill="none" xmlns="http://www.w3.org/2000/svg">
<g clip-path="url(#clip0_74_203)">
<path d="M16.0003 32C15.7378 32.0004 15.4778 31.949 15.2352 31.8485C14.9926 31.748 14.7724 31.6006 14.587 31.4147L4.35235 21.1853C2.97716 19.8101 2.20459 17.9449 2.20459 16C2.20459 14.0551 2.97716 12.1899 4.35235 10.8147L14.5817 0.58532C14.9569 0.210304 15.4657 -0.000308074 15.9961 -0.00018305C16.5266 -5.80256e-05 17.0353 0.210793 17.4103 0.585986C17.7854 0.961179 17.996 1.46998 17.9958 2.00046C17.9957 2.53094 17.7849 3.03964 17.4097 3.41465L7.18035 13.6427C6.87073 13.9522 6.62512 14.3197 6.45755 14.7242C6.28998 15.1286 6.20373 15.5622 6.20373 16C6.20373 16.4378 6.28998 16.8713 6.45755 17.2758C6.62512 17.6803 6.87073 18.0478 7.18035 18.3573L17.4097 28.5853C17.6892 28.8647 17.8798 29.2207 17.9572 29.6083C18.0346 29.9958 17.9954 30.3977 17.8446 30.763C17.6939 31.1284 17.4382 31.4408 17.1099 31.661C16.7817 31.8812 16.3956 31.9991 16.0003 32Z" fill="black"/>
<path d="M28.7229 32C28.4602 32.0001 28.2 31.9485 27.9573 31.8481C27.7146 31.7476 27.494 31.6004 27.3082 31.4147L15.2002 19.3C14.3265 18.424 13.8359 17.2372 13.8359 16C13.8359 14.7628 14.3265 13.5761 15.2002 12.7L27.3082 0.585354C27.6868 0.227737 28.19 0.0319123 28.7107 0.0395203C29.2315 0.0471283 29.7287 0.257569 30.0967 0.626094C30.4647 0.99462 30.6745 1.49216 30.6813 2.01292C30.6882 2.53368 30.4917 3.03658 30.1335 3.41469L18.0189 15.528C17.9568 15.5899 17.9075 15.6635 17.8739 15.7445C17.8403 15.8255 17.823 15.9123 17.823 16C17.823 16.0877 17.8403 16.1745 17.8739 16.2555C17.9075 16.3365 17.9568 16.4101 18.0189 16.472L30.1335 28.5854C30.4132 28.8648 30.6037 29.2209 30.6811 29.6086C30.7585 29.9963 30.7192 30.3983 30.5682 30.7637C30.4173 31.1291 30.1614 31.4415 29.833 31.6616C29.5045 31.8816 29.1182 31.9994 28.7229 32V32Z" fill="black"/>
</g>
<defs>
<clipPath id="clip0_74_203">
<rect width="32" height="32" fill="white"/>
</clipPath>
</defs>
</svg>
