<svg width="32" height="32" viewBox="0 0 32 32" fill="none" xmlns="http://www.w3.org/2000/svg">
<g clip-path="url(#clip0_74_200)">
<path d="M15.7763 32C15.3806 32.0001 14.9937 31.8829 14.6647 31.6632C14.3356 31.4434 14.0791 31.131 13.9277 30.7655C13.7762 30.3999 13.7366 29.9976 13.8139 29.6095C13.8911 29.2215 14.0817 28.865 14.3616 28.5853L24.591 18.3573C24.9006 18.0478 25.1462 17.6803 25.3138 17.2758C25.4813 16.8713 25.5676 16.4378 25.5676 16C25.5676 15.5622 25.4813 15.1286 25.3138 14.7242C25.1462 14.3197 24.9006 13.9522 24.591 13.6426L14.3616 3.41464C14.1759 3.22886 14.0285 3.00831 13.9279 2.76558C13.8274 2.52285 13.7757 2.2627 13.7757 1.99997C13.7757 1.46937 13.9864 0.960496 14.3616 0.585303C14.7368 0.21011 15.2457 -0.000671387 15.7763 -0.000671387C16.039 -0.000671387 16.2992 0.0510767 16.5419 0.151618C16.7846 0.25216 17.0052 0.399526 17.191 0.585303L27.4189 10.8146C28.7941 12.1899 29.5667 14.0551 29.5667 16C29.5667 17.9448 28.7941 19.81 27.4189 21.1853L17.191 31.4146C17.0052 31.6003 16.7846 31.7476 16.5419 31.848C16.2991 31.9485 16.039 32.0001 15.7763 32Z" fill="black"/>
<path d="M3.04987 32C2.65429 31.9999 2.26761 31.8825 1.93875 31.6627C1.60989 31.4428 1.35362 31.1304 1.20233 30.7649C1.05105 30.3994 1.01155 29.9972 1.08884 29.6092C1.16613 29.2213 1.35673 28.865 1.63653 28.5853L13.7499 16.472C13.812 16.4101 13.8612 16.3365 13.8948 16.2555C13.9284 16.1745 13.9457 16.0877 13.9457 16C13.9457 15.9123 13.9284 15.8255 13.8948 15.7445C13.8612 15.6635 13.812 15.5899 13.7499 15.528L1.63653 3.41465C1.26134 3.03964 1.05049 2.53094 1.05036 2.00046C1.05024 1.46998 1.26085 0.961179 1.63587 0.585986C2.01088 0.210793 2.51958 -5.80256e-05 3.05006 -0.00018305C3.58054 -0.000308074 4.08934 0.210304 4.46453 0.58532L16.5792 12.7C17.4518 13.5763 17.9417 14.7626 17.9417 15.9993C17.9417 17.236 17.4518 18.4223 16.5792 19.2987L4.46453 31.4147C4.27873 31.6003 4.05816 31.7476 3.81543 31.848C3.57269 31.9485 3.31256 32.0001 3.04987 32Z" fill="black"/>
</g>
<defs>
<clipPath id="clip0_74_200">
<rect width="32" height="32" fill="white"/>
</clipPath>
</defs>
</svg>
